<svg xmlns="http://www.w3.org/2000/svg" viewBox="0 0 1080 620">
<style>
text{font-family:Arial, sans-serif; fill:#223}.title{font-size:28px;font-weight:700}.h{font-size:18px;font-weight:700}.b{font-size:14px}.box{fill:#fff;stroke:#ccd3df;stroke-width:2;rx:16}.arrow{stroke:#718096;stroke-width:2.5;fill:none;marker-end:url(#a)}
</style>
<defs><marker id="a" markerWidth="10" markerHeight="10" refX="8" refY="3" orient="auto"><path d="M0,0 L0,6 L9,3 z" fill="#718096"/></marker></defs>
<text x="50" y="55" class="title">Concept Generation of the Solution</text>
<rect x="70" y="100" width="190" height="95" class="box"/><text x="95" y="138" class="h">Bottleneck</text><text x="95" y="166" class="b">Where is the lever?</text><path d="M260 148 H330" class="arrow"/>
<rect x="340" y="100" width="190" height="95" class="box"/><text x="365" y="138" class="h">Driving Source</text><text x="365" y="166" class="b">Why does it persist?</text><path d="M530 148 H600" class="arrow"/>
<rect x="610" y="100" width="190" height="95" class="box"/><text x="635" y="138" class="h">Challenge Nature</text><text x="635" y="166" class="b">What must be overcome?</text><path d="M800 148 H870" class="arrow"/>
<rect x="880" y="100" width="150" height="95" class="box"/><text x="905" y="138" class="h">Pathway</text><text x="905" y="166" class="b">How to dissolve it?</text>
<rect x="120" y="285" width="250" height="110" class="box"/><text x="145" y="326" class="h">Comparable Case</text><text x="145" y="356" class="b">What worked elsewhere?</text><path d="M245 285 C245 235,430 220,520 195" class="arrow"/>
<rect x="430" y="285" width="250" height="110" class="box"/><text x="455" y="326" class="h">Transfer Logic</text><text x="455" y="356" class="b">What is similar or different?</text><path d="M680 340 H760" class="arrow"/>
<rect x="770" y="285" width="250" height="110" class="box"/><text x="795" y="326" class="h">Adapted Solution</text><text x="795" y="356" class="b">What must be modified?</text>
<rect x="190" y="465" width="700" height="90" class="box" style="fill:#f7fafc"/><text x="220" y="505" class="h">Before Hypotheses</text><text x="220" y="535" class="b">Data analysis · Behaviour research · Comparable case study</text>
</svg>