<svg width="1200" height="720" viewBox="0 0 1200 720" fill="none" xmlns="http://www.w3.org/2000/svg">
  <defs>
    <linearGradient id="bg" x1="0" y1="0" x2="1200" y2="720" gradientUnits="userSpaceOnUse">
      <stop stop-color="#0B1220"/><stop offset="1" stop-color="#101A2F"/>
    </linearGradient>
    <filter id="shadow" x="-20%" y="-20%" width="140%" height="140%"><feDropShadow dx="0" dy="14" stdDeviation="16" flood-color="#000" flood-opacity="0.22"/></filter>
  </defs>
  <rect width="1200" height="720" rx="28" fill="url(#bg)"/>
  <text x="70" y="86" fill="#F8FAFC" font-family="Inter, Arial, sans-serif" font-size="34" font-weight="700">Ollama + Llama 3.1 8B setup flow on a Mac mini M4</text>
  <g filter="url(#shadow)">
    <rect x="70" y="180" width="160" height="86" rx="22" fill="#0F172A" stroke="#38BDF8" stroke-width="1.5"/><text x="94" y="218" fill="#38BDF8" font-family="Inter, Arial, sans-serif" font-size="14" font-weight="700">STEP 1</text><text x="94" y="248" fill="#F8FAFC" font-family="Inter, Arial, sans-serif" font-size="23" font-weight="700">Download Ollama.dmg</text>
    <rect x="278" y="180" width="170" height="86" rx="22" fill="#0F172A" stroke="#34D399" stroke-width="1.5"/><text x="302" y="218" fill="#34D399" font-family="Inter, Arial, sans-serif" font-size="14" font-weight="700">STEP 2</text><text x="302" y="248" fill="#F8FAFC" font-family="Inter, Arial, sans-serif" font-size="23" font-weight="700">Move to Applications</text>
    <rect x="496" y="180" width="192" height="86" rx="22" fill="#0F172A" stroke="#F59E0B" stroke-width="1.5"/><text x="520" y="218" fill="#F59E0B" font-family="Inter, Arial, sans-serif" font-size="14" font-weight="700">STEP 3</text><text x="520" y="248" fill="#F8FAFC" font-family="Inter, Arial, sans-serif" font-size="23" font-weight="700">Grant CLI symlink permission</text>
    <rect x="736" y="180" width="160" height="86" rx="22" fill="#0F172A" stroke="#818CF8" stroke-width="1.5"/><text x="760" y="218" fill="#818CF8" font-family="Inter, Arial, sans-serif" font-size="14" font-weight="700">STEP 4</text><text x="760" y="248" fill="#F8FAFC" font-family="Inter, Arial, sans-serif" font-size="23" font-weight="700">Open Terminal</text>
    <rect x="944" y="180" width="186" height="86" rx="22" fill="#0F172A" stroke="#A78BFA" stroke-width="1.5"/><text x="968" y="218" fill="#A78BFA" font-family="Inter, Arial, sans-serif" font-size="14" font-weight="700">STEP 5</text><text x="968" y="248" fill="#F8FAFC" font-family="Inter, Arial, sans-serif" font-size="23" font-weight="700">ollama run llama3.1:8b</text>
  </g>
  <path d="M230 223H278M448 223H496M688 223H736M896 223H944" stroke="#64748B" stroke-width="4" stroke-linecap="round"/>
  <g filter="url(#shadow)"><rect x="392" y="384" width="416" height="164" rx="24" fill="#111827" stroke="#22C55E" stroke-width="1.5"/><text x="432" y="430" fill="#22C55E" font-family="Inter, Arial, sans-serif" font-size="16" font-weight="700">RESULT</text><text x="432" y="474" fill="#F8FAFC" font-family="Inter, Arial, sans-serif" font-size="28" font-weight="700">Start chatting locally</text><text x="432" y="514" fill="#CBD5E1" font-family="Inter, Arial, sans-serif" font-size="18">Use one simple runtime and one sane model first.</text><text x="432" y="544" fill="#CBD5E1" font-family="Inter, Arial, sans-serif" font-size="18">Expand only after local use becomes routine.</text></g>
</svg>